<svg width="1412" height="1237" viewBox="0 0 1412 1237" fill="none" xmlns="http://www.w3.org/2000/svg">
<ellipse cx="712" cy="637" rx="700" ry="600" fill="#030202"/>
<path d="M1386.35 600C1386.35 921.934 1081.11 1186.35 700 1186.35C318.889 1186.35 13.65 921.934 13.65 600C13.65 278.066 318.889 13.65 700 13.65C1081.11 13.65 1386.35 278.066 1386.35 600Z" fill="#1D4101" stroke="#F6FCFF" stroke-width="27.3"/>
<path d="M573.4 653.8C577.133 653.8 580.567 654.267 583.7 655.2C586.9 656.067 590.133 657.467 593.4 659.4L595.7 657.5C597.3 656.233 598.6 655.367 599.6 654.9C600.667 654.433 601.867 654.2 603.2 654.2C604.8 654.2 606.067 654.567 607 655.3C607.933 655.967 608.4 656.967 608.4 658.3C608.4 658.833 608.3 659.4 608.1 660L603.9 673.8C603.433 675.4 602.833 676.533 602.1 677.2C601.433 677.867 600.4 678.2 599 678.2C597.533 678.2 596.233 677.767 595.1 676.9C594.033 675.967 592.333 674.1 590 671.3C587.667 668.633 585.533 666.767 583.6 665.7C581.733 664.567 579.8 664 577.8 664C576.333 664 575.1 664.5 574.1 665.5C573.1 666.433 572.6 667.6 572.6 669C572.6 670.6 573.4 672.1 575 673.5C576.6 674.833 579.1 676.533 582.5 678.6C585.967 680.667 588.833 682.533 591.1 684.2C593.367 685.867 595.3 687.933 596.9 690.4C598.5 692.867 599.3 695.7 599.3 698.9C599.3 700.967 598.967 703.033 598.3 705.1C596.7 710.433 593.6 714.5 589 717.3C584.4 720.033 579.033 721.4 572.9 721.4C568.3 721.4 564.433 720.867 561.3 719.8C558.167 718.733 554.967 716.933 551.7 714.4L548.1 717.4C546.433 718.8 545.067 719.767 544 720.3C542.933 720.767 541.733 721 540.4 721C538.867 721 537.633 720.633 536.7 719.9C535.833 719.167 535.4 718.167 535.4 716.9C535.4 716.233 535.533 715.533 535.8 714.8L540.7 699.9C541.233 698.167 541.967 696.933 542.9 696.2C543.833 695.467 545.033 695.1 546.5 695.1C548.033 695.1 549.4 695.633 550.6 696.7C551.867 697.767 553.5 699.7 555.5 702.5C557.633 705.567 559.6 707.7 561.4 708.9C563.267 710.1 565.467 710.7 568 710.7C569.8 710.7 571.167 710.433 572.1 709.9C573.1 709.3 573.8 708.367 574.2 707.1C574.333 706.767 574.4 706.267 574.4 705.6C574.4 704 573.633 702.533 572.1 701.2C570.567 699.867 568.2 698.267 565 696.4C561.6 694.333 558.833 692.5 556.7 690.9C554.567 689.233 552.7 687.167 551.1 684.7C549.567 682.233 548.8 679.333 548.8 676C548.8 673.667 549.167 671.367 549.9 669.1C551.3 664.5 554.167 660.8 558.5 658C562.833 655.2 567.8 653.8 573.4 653.8ZM637.792 721.6C632.192 721.6 627.159 720.567 622.692 718.5C618.226 716.433 614.659 713.4 611.992 709.4C609.392 705.333 608.092 700.433 608.092 694.7C608.092 690.7 608.792 686.367 610.192 681.7C613.259 671.7 617.892 664.5 624.092 660.1C630.292 655.633 636.926 653.4 643.992 653.4C647.792 653.4 651.159 653.967 654.092 655.1C657.026 656.233 659.726 657.867 662.192 660L664.892 657.9C666.692 656.5 668.192 655.533 669.392 655C670.659 654.467 672.059 654.2 673.592 654.2C675.259 654.2 676.592 654.567 677.592 655.3C678.592 656.033 679.092 657.1 679.092 658.5C679.092 659.233 678.959 659.967 678.692 660.7L673.092 676.3C672.492 678.1 671.759 679.367 670.892 680.1C670.092 680.833 668.859 681.2 667.192 681.2C665.459 681.2 664.026 680.6 662.892 679.4C661.826 678.133 660.592 676 659.192 673C657.592 669.867 656.292 667.8 655.292 666.8C654.292 665.8 652.826 665.3 650.892 665.3C648.159 665.3 645.526 667 642.992 670.4C640.459 673.733 638.159 678.767 636.092 685.5C634.359 691.167 633.492 695.9 633.492 699.7C633.492 703.033 634.126 705.533 635.392 707.2C636.659 708.8 638.359 709.6 640.492 709.6C643.626 709.6 646.192 708.9 648.192 707.5C650.259 706.1 652.359 704.2 654.492 701.8C655.826 700.333 656.892 699.267 657.692 698.6C658.559 697.867 659.459 697.5 660.392 697.5C661.592 697.5 662.859 698.1 664.192 699.3C665.526 700.5 666.159 701.7 666.092 702.9C666.159 704.367 664.959 706.633 662.492 709.7C660.092 712.767 656.726 715.533 652.392 718C648.126 720.4 643.259 721.6 637.792 721.6ZM718.977 652.9C727.377 652.9 733.944 654.9 738.677 658.9C743.411 662.833 745.777 668.533 745.777 676C745.777 679.533 745.244 683.333 744.177 687.4C742.177 694.867 739.077 701.2 734.877 706.4C730.677 711.6 725.677 715.533 719.877 718.2C714.077 720.867 707.777 722.2 700.977 722.2C692.644 722.2 686.111 720.233 681.377 716.3C676.644 712.3 674.277 706.567 674.277 699.1C674.277 695.7 674.844 691.8 675.977 687.4C677.911 680 680.944 673.733 685.077 668.6C689.277 663.4 694.244 659.5 699.977 656.9C705.777 654.233 712.111 652.9 718.977 652.9ZM717.177 662.7C715.177 662.7 713.377 663.5 711.777 665.1C710.177 666.7 708.577 669.333 706.977 673C705.444 676.6 703.777 681.633 701.977 688.1C699.311 697.433 697.977 703.867 697.977 707.4C697.977 709.467 698.344 710.967 699.077 711.9C699.811 712.833 700.977 713.3 702.577 713.3C704.577 713.3 706.377 712.5 707.977 710.9C709.577 709.233 711.144 706.6 712.677 703C714.211 699.4 715.911 694.433 717.777 688.1C720.377 678.9 721.677 672.433 721.677 668.7C721.677 666.567 721.311 665.033 720.577 664.1C719.844 663.167 718.711 662.7 717.177 662.7ZM820.017 674.7C818.951 678.567 816.951 681.6 814.017 683.8C811.084 685.933 807.384 687.267 802.917 687.8C806.117 688.067 808.517 689 810.117 690.6C811.717 692.2 812.517 694.3 812.517 696.9C812.517 697.9 812.351 699.133 812.017 700.6L810.917 705.5C810.784 706.167 810.717 706.633 810.717 706.9C810.717 707.767 810.917 708.433 811.317 708.9C811.717 709.3 812.284 709.5 813.017 709.5C814.417 709.5 815.417 709.7 816.017 710.1C816.684 710.5 816.917 711.233 816.717 712.3C816.451 713.833 815.651 715.333 814.317 716.8C812.984 718.267 811.084 719.5 808.617 720.5C806.217 721.433 803.284 721.9 799.817 721.9C795.417 721.9 791.917 720.933 789.317 719C786.717 717 785.417 714.167 785.417 710.5C785.417 709.1 785.617 707.6 786.017 706L787.617 699.6C787.884 698.733 788.017 697.833 788.017 696.9C788.017 695.367 787.484 694.267 786.417 693.6C785.417 692.933 783.784 692.6 781.517 692.6H777.717L773.117 709.2C772.984 709.6 772.917 710.1 772.917 710.7C772.917 711.633 773.151 712.433 773.617 713.1C774.084 713.767 774.717 714.467 775.517 715.2C776.117 715.667 776.584 716.133 776.917 716.6C777.251 717 777.417 717.433 777.417 717.9C777.417 719.033 776.884 719.833 775.817 720.3C774.751 720.767 773.184 721 771.117 721H746.017C744.284 721 742.984 720.7 742.117 720.1C741.251 719.433 740.951 718.533 741.217 717.4C741.351 716.8 741.617 716.333 742.017 716C742.351 715.6 742.884 715.167 743.617 714.7C744.751 714.033 745.651 713.333 746.317 712.6C746.984 711.867 747.517 710.733 747.917 709.2L760.117 666.1C760.384 665.233 760.517 664.4 760.517 663.6C760.517 662.867 760.384 662.267 760.117 661.8C759.917 661.267 759.617 660.667 759.217 660C758.617 659.133 758.317 658.433 758.317 657.9C758.317 657.7 758.384 657.333 758.517 656.8C758.784 655.933 759.351 655.333 760.217 655C761.151 654.6 762.551 654.4 764.417 654.4H797.917C802.517 654.4 806.517 655.1 809.917 656.5C813.384 657.9 816.017 659.833 817.817 662.3C819.684 664.7 820.617 667.433 820.617 670.5C820.617 671.9 820.417 673.3 820.017 674.7ZM794.417 673.7C794.751 672.167 794.917 671 794.917 670.2C794.917 666.667 792.984 664.9 789.117 664.9H784.917L780.517 682.6H784.717C787.317 682.6 789.351 681.967 790.817 680.7C792.351 679.433 793.551 677.1 794.417 673.7ZM884.796 654.4C887.263 654.4 889.163 654.933 890.496 656C891.896 657.067 892.596 658.533 892.596 660.4C892.596 661.333 892.463 662.233 892.196 663.1L889.596 672.4C889.129 674.2 888.429 675.467 887.496 676.2C886.629 676.867 885.363 677.2 883.696 677.2C882.096 677.2 880.829 676.867 879.896 676.2C879.029 675.467 878.363 674.3 877.896 672.7L876.296 667C875.963 665.8 875.563 665 875.096 664.6C874.629 664.2 873.729 664 872.396 664H861.896L856.896 681.8H861.296C861.763 681.8 862.396 681.467 863.196 680.8L866.596 677.8C867.596 676.933 868.463 676.3 869.196 675.9C869.929 675.5 870.829 675.3 871.896 675.3C873.096 675.3 874.063 675.633 874.796 676.3C875.596 676.9 875.996 677.7 875.996 678.7C875.996 678.967 875.929 679.367 875.796 679.9L871.696 693.8C871.296 695.267 870.596 696.367 869.596 697.1C868.663 697.767 867.629 698.1 866.496 698.1C864.629 698.1 863.229 697.133 862.296 695.2L860.596 691.7C860.129 690.7 859.396 690.2 858.396 690.2H854.496L848.596 711.4H857.396C858.663 711.4 859.763 711.167 860.696 710.7C861.696 710.167 862.763 709.267 863.896 708L869.896 701.4C870.963 700.267 871.963 699.467 872.896 699C873.896 698.467 875.096 698.2 876.496 698.2C877.963 698.2 879.163 698.533 880.096 699.2C881.029 699.867 881.496 700.867 881.496 702.2C881.496 702.733 881.396 703.367 881.196 704.1L878.296 714.2C877.563 716.733 876.496 718.5 875.096 719.5C873.696 720.5 871.663 721 868.996 721H821.296C819.896 721 818.829 720.767 818.096 720.3C817.296 719.833 816.896 719.2 816.896 718.4C816.896 718 816.996 717.567 817.196 717.1C817.463 716.367 817.896 715.8 818.496 715.4C819.096 715 819.463 714.767 819.596 714.7C820.663 714.033 821.529 713.367 822.196 712.7C822.863 711.967 823.429 710.8 823.896 709.2L836.196 666.1C836.463 665.233 836.596 664.433 836.596 663.7C836.596 662.9 836.463 662.233 836.196 661.7C835.996 661.167 835.663 660.6 835.196 660C834.596 659.133 834.296 658.433 834.296 657.9C834.296 657.7 834.363 657.333 834.496 656.8C834.763 655.933 835.363 655.333 836.296 655C837.229 654.6 838.596 654.4 840.396 654.4H884.796Z" fill="#F6FCFF"/>
<path d="M298.18 309.12C304.78 309.12 308.08 311.82 308.08 317.22C308.08 318.9 307.72 321 307 323.52L302.68 338.1C301.36 342.54 299.74 345.66 297.82 347.46C295.9 349.26 293.14 350.16 289.54 350.16C286.54 350.16 284.2 349.38 282.52 347.82C280.96 346.26 279.46 343.8 278.02 340.44L274.96 333.06C274 330.78 272.98 329.22 271.9 328.38C270.82 327.54 269.14 327.12 266.86 327.12H262.72L239.86 407.58C239.5 409.14 239.32 410.52 239.32 411.72C239.32 413.16 239.5 414.36 239.86 415.32C240.34 416.28 241 417.3 241.84 418.38C242.92 420.06 243.46 421.44 243.46 422.52C243.46 422.76 243.34 423.36 243.1 424.32C242.5 425.88 241.3 427.02 239.5 427.74C237.82 428.46 235.36 428.82 232.12 428.82H189.82C187.3 428.82 185.32 428.4 183.88 427.56C182.56 426.72 181.9 425.52 181.9 423.96C181.9 423.24 182.08 422.52 182.44 421.8C182.92 420.72 183.46 419.94 184.06 419.46C184.78 418.86 185.8 418.14 187.12 417.3C188.92 416.22 190.42 415.02 191.62 413.7C192.82 412.38 193.84 410.34 194.68 407.58L217.36 327.12H213.22C210.58 327.12 208.42 327.54 206.74 328.38C205.06 329.22 203.26 330.78 201.34 333.06L195.4 340.44C192.64 343.68 189.94 346.14 187.3 347.82C184.78 349.38 182.02 350.16 179.02 350.16C176.26 350.16 174.1 349.44 172.54 348C170.98 346.56 170.2 344.58 170.2 342.06C170.2 340.86 170.38 339.54 170.74 338.1L175.42 321.72C176.38 318.36 177.46 315.84 178.66 314.16C179.86 312.36 181.54 311.1 183.7 310.38C185.98 309.54 189.16 309.12 193.24 309.12H298.18ZM370.502 309.12C373.022 309.12 374.942 309.54 376.262 310.38C377.702 311.1 378.422 312.18 378.422 313.62C378.422 314.22 378.242 315 377.882 315.96C377.522 316.8 376.982 317.58 376.262 318.3C375.662 318.9 375.062 319.38 374.462 319.74C373.982 319.98 373.622 320.22 373.382 320.46C371.462 321.54 369.902 322.74 368.702 324.06C367.502 325.38 366.482 327.42 365.642 330.18L343.862 407.76C343.382 409.32 343.142 410.82 343.142 412.26C343.142 413.7 343.322 414.9 343.682 415.86C344.162 416.82 344.822 417.84 345.662 418.92C346.742 420.48 347.282 421.74 347.282 422.7C347.282 422.94 347.162 423.54 346.922 424.5C346.442 426.18 345.362 427.38 343.682 428.1C342.002 428.7 339.482 429 336.122 429H293.822C291.302 429 289.382 428.58 288.062 427.74C286.622 426.9 285.902 425.76 285.902 424.32C285.902 423.6 286.082 422.82 286.442 421.98C286.922 420.66 287.702 419.64 288.782 418.92C289.862 418.2 290.522 417.78 290.762 417.66C292.682 416.46 294.242 415.26 295.442 414.06C296.642 412.74 297.662 410.64 298.502 407.76L320.462 330.18C320.942 328.62 321.182 327.12 321.182 325.68C321.182 324.36 320.942 323.28 320.462 322.44C320.102 321.48 319.562 320.4 318.842 319.2C317.762 317.64 317.222 316.38 317.222 315.42C317.222 315.06 317.342 314.4 317.582 313.44C318.062 311.88 319.082 310.8 320.642 310.2C322.322 309.48 324.842 309.12 328.202 309.12H370.502ZM562.125 309.12C564.645 309.12 566.565 309.54 567.885 310.38C569.325 311.1 570.045 312.18 570.045 313.62C570.045 314.22 569.865 315 569.505 315.96C569.145 317.04 568.605 317.88 567.885 318.48C567.285 318.96 566.325 319.62 565.005 320.46C563.085 321.54 561.525 322.74 560.325 324.06C559.245 325.38 558.285 327.42 557.445 330.18L535.485 407.58C535.005 409.14 534.765 410.64 534.765 412.08C534.765 413.4 534.945 414.54 535.305 415.5C535.785 416.34 536.385 417.36 537.105 418.56C537.585 419.16 538.005 419.82 538.365 420.54C538.725 421.14 538.905 421.8 538.905 422.52C538.905 422.76 538.785 423.36 538.545 424.32C538.065 425.88 536.925 427.02 535.125 427.74C533.445 428.46 530.985 428.82 527.745 428.82H485.445C482.925 428.82 480.945 428.4 479.505 427.56C478.185 426.72 477.525 425.58 477.525 424.14C477.525 423.42 477.705 422.64 478.065 421.8C478.425 420.96 478.905 420.24 479.505 419.64C480.225 418.92 480.825 418.44 481.305 418.2C481.905 417.84 482.325 417.54 482.565 417.3C484.485 416.22 486.045 415.02 487.245 413.7C488.445 412.38 489.465 410.34 490.305 407.58L503.985 358.98L457.365 416.76C453.525 421.44 450.405 424.68 448.005 426.48C445.725 428.16 443.085 429 440.085 429C437.205 429 434.925 428.1 433.245 426.3C431.685 424.38 430.245 421.2 428.925 416.76L412.005 361.14L398.685 407.76C398.205 409.32 397.965 410.82 397.965 412.26C397.965 413.7 398.145 414.9 398.505 415.86C398.985 416.82 399.645 417.84 400.485 418.92C401.565 420.48 402.105 421.74 402.105 422.7C402.105 422.94 401.985 423.54 401.745 424.5C401.265 426.18 400.185 427.38 398.505 428.1C396.825 428.7 394.305 429 390.945 429H376.005C373.485 429 371.505 428.58 370.065 427.74C368.745 426.9 368.085 425.76 368.085 424.32C368.085 423.6 368.265 422.82 368.625 421.98C369.105 420.66 369.885 419.64 370.965 418.92C372.045 418.2 372.705 417.78 372.945 417.66C374.865 416.46 376.425 415.26 377.625 414.06C378.825 412.74 379.845 410.64 380.685 407.76L402.645 330L399.765 320.46C399.165 318.66 398.865 316.92 398.865 315.24C398.865 313.08 399.525 311.52 400.845 310.56C402.285 309.6 404.445 309.12 407.325 309.12H435.225C438.825 309.12 441.465 309.9 443.145 311.46C444.945 313.02 446.385 315.72 447.465 319.56L465.465 379.32L514.245 318.66C517.365 314.82 520.425 312.3 523.425 311.1C526.425 309.78 530.385 309.12 535.305 309.12H562.125ZM678.122 309.12C682.562 309.12 685.982 310.08 688.382 312C690.902 313.92 692.162 316.56 692.162 319.92C692.162 321.6 691.922 323.22 691.442 324.78L686.762 341.52C685.922 344.76 684.662 347.04 682.982 348.36C681.422 349.56 679.142 350.16 676.142 350.16C673.262 350.16 670.982 349.56 669.302 348.36C667.742 347.04 666.542 344.94 665.702 342.06L662.822 331.8C662.222 329.64 661.502 328.2 660.662 327.48C659.822 326.76 658.202 326.4 655.802 326.4H636.902L627.902 358.44H635.822C636.662 358.44 637.802 357.84 639.242 356.64L645.362 351.24C647.162 349.68 648.722 348.54 650.042 347.82C651.362 347.1 652.982 346.74 654.902 346.74C657.062 346.74 658.802 347.34 660.122 348.54C661.562 349.62 662.282 351.06 662.282 352.86C662.282 353.34 662.162 354.06 661.922 355.02L654.542 380.04C653.822 382.68 652.562 384.66 650.762 385.98C649.082 387.18 647.222 387.78 645.182 387.78C641.822 387.78 639.302 386.04 637.622 382.56L634.562 376.26C633.722 374.46 632.402 373.56 630.602 373.56H623.582L612.962 411.72H628.802C631.082 411.72 633.062 411.3 634.742 410.46C636.542 409.5 638.462 407.88 640.502 405.6L651.302 393.72C653.222 391.68 655.022 390.24 656.702 389.4C658.502 388.44 660.662 387.96 663.182 387.96C665.822 387.96 667.982 388.56 669.662 389.76C671.342 390.96 672.182 392.76 672.182 395.16C672.182 396.12 672.002 397.26 671.642 398.58L666.422 416.76C665.102 421.32 663.182 424.5 660.662 426.3C658.142 428.1 654.482 429 649.682 429H563.822C561.302 429 559.382 428.58 558.062 427.74C556.622 426.9 555.902 425.76 555.902 424.32C555.902 423.6 556.082 422.82 556.442 421.98C556.922 420.66 557.702 419.64 558.782 418.92C559.862 418.2 560.522 417.78 560.762 417.66C562.682 416.46 564.242 415.26 565.442 414.06C566.642 412.74 567.662 410.64 568.502 407.76L590.642 330.18C591.122 328.62 591.362 327.18 591.362 325.86C591.362 324.42 591.122 323.22 590.642 322.26C590.282 321.3 589.682 320.28 588.842 319.2C587.762 317.64 587.222 316.38 587.222 315.42C587.222 315.06 587.342 314.4 587.582 313.44C588.062 311.88 589.142 310.8 590.822 310.2C592.502 309.48 594.962 309.12 598.202 309.12H678.122ZM805.039 306.42C820.159 306.42 831.979 310.02 840.499 317.22C849.019 324.3 853.279 334.56 853.279 348C853.279 354.36 852.319 361.2 850.399 368.52C846.799 381.96 841.219 393.36 833.659 402.72C826.099 412.08 817.099 419.16 806.659 423.96C796.219 428.76 784.879 431.16 772.639 431.16C757.639 431.16 745.879 427.62 737.359 420.54C728.839 413.34 724.579 403.02 724.579 389.58C724.579 383.46 725.599 376.44 727.639 368.52C731.119 355.2 736.579 343.92 744.019 334.68C751.579 325.32 760.519 318.3 770.839 313.62C781.279 308.82 792.679 306.42 805.039 306.42ZM801.799 324.06C798.199 324.06 794.959 325.5 792.079 328.38C789.199 331.26 786.319 336 783.439 342.6C780.679 349.08 777.679 358.14 774.439 369.78C769.639 386.58 767.239 398.16 767.239 404.52C767.239 408.24 767.899 410.94 769.219 412.62C770.539 414.3 772.639 415.14 775.519 415.14C779.119 415.14 782.359 413.7 785.239 410.82C788.119 407.82 790.939 403.08 793.699 396.6C796.459 390.12 799.519 381.18 802.879 369.78C807.559 353.22 809.899 341.58 809.899 334.86C809.899 331.02 809.239 328.26 807.919 326.58C806.599 324.9 804.559 324.06 801.799 324.06ZM989.914 326.4C989.914 330.72 988.954 334.44 987.034 337.56C985.234 340.68 982.894 343.08 980.014 344.76C977.134 346.32 974.254 347.1 971.374 347.1C968.494 347.1 965.854 346.5 963.454 345.3C961.174 344.1 959.254 342.48 957.694 340.44L914.314 413.52C911.074 419.04 908.074 423 905.314 425.4C902.554 427.8 899.434 429 895.954 429C892.234 429 889.234 427.8 886.954 425.4C884.794 422.88 883.234 418.92 882.274 413.52L867.154 330.36C866.794 328.2 866.134 326.46 865.174 325.14C864.214 323.82 862.954 322.38 861.394 320.82C860.194 319.74 859.354 318.9 858.874 318.3C858.394 317.58 858.154 316.74 858.154 315.78C857.554 311.34 860.194 309.12 866.074 309.12H911.074C913.834 309.12 915.934 309.72 917.374 310.92C918.814 312 919.474 313.5 919.354 315.42C919.354 316.5 919.114 317.4 918.634 318.12C918.274 318.84 917.614 319.74 916.654 320.82C915.574 322.02 914.734 323.16 914.134 324.24C913.534 325.32 913.234 326.64 913.234 328.2C913.234 328.92 913.294 329.52 913.414 330L920.254 371.94L944.194 329.46C948.394 321.78 952.534 316.38 956.614 313.26C960.694 310.02 965.734 308.4 971.734 308.4C977.254 308.4 981.634 310.02 984.874 313.26C988.234 316.38 989.914 320.76 989.914 326.4ZM1086.29 309.12C1090.73 309.12 1094.15 310.08 1096.55 312C1099.07 313.92 1100.33 316.56 1100.33 319.92C1100.33 321.6 1100.09 323.22 1099.61 324.78L1094.93 341.52C1094.09 344.76 1092.83 347.04 1091.15 348.36C1089.59 349.56 1087.31 350.16 1084.31 350.16C1081.43 350.16 1079.15 349.56 1077.47 348.36C1075.91 347.04 1074.71 344.94 1073.87 342.06L1070.99 331.8C1070.39 329.64 1069.67 328.2 1068.83 327.48C1067.99 326.76 1066.37 326.4 1063.97 326.4H1045.07L1036.07 358.44H1043.99C1044.83 358.44 1045.97 357.84 1047.41 356.64L1053.53 351.24C1055.33 349.68 1056.89 348.54 1058.21 347.82C1059.53 347.1 1061.15 346.74 1063.07 346.74C1065.23 346.74 1066.97 347.34 1068.29 348.54C1069.73 349.62 1070.45 351.06 1070.45 352.86C1070.45 353.34 1070.33 354.06 1070.09 355.02L1062.71 380.04C1061.99 382.68 1060.73 384.66 1058.93 385.98C1057.25 387.18 1055.39 387.78 1053.35 387.78C1049.99 387.78 1047.47 386.04 1045.79 382.56L1042.73 376.26C1041.89 374.46 1040.57 373.56 1038.77 373.56H1031.75L1021.13 411.72H1036.97C1039.25 411.72 1041.23 411.3 1042.91 410.46C1044.71 409.5 1046.63 407.88 1048.67 405.6L1059.47 393.72C1061.39 391.68 1063.19 390.24 1064.87 389.4C1066.67 388.44 1068.83 387.96 1071.35 387.96C1073.99 387.96 1076.15 388.56 1077.83 389.76C1079.51 390.96 1080.35 392.76 1080.35 395.16C1080.35 396.12 1080.17 397.26 1079.81 398.58L1074.59 416.76C1073.27 421.32 1071.35 424.5 1068.83 426.3C1066.31 428.1 1062.65 429 1057.85 429H971.986C969.466 429 967.546 428.58 966.226 427.74C964.786 426.9 964.066 425.76 964.066 424.32C964.066 423.6 964.246 422.82 964.606 421.98C965.086 420.66 965.866 419.64 966.946 418.92C968.026 418.2 968.686 417.78 968.926 417.66C970.846 416.46 972.406 415.26 973.606 414.06C974.806 412.74 975.826 410.64 976.666 407.76L998.806 330.18C999.286 328.62 999.526 327.18 999.526 325.86C999.526 324.42 999.286 323.22 998.806 322.26C998.446 321.3 997.846 320.28 997.006 319.2C995.926 317.64 995.386 316.38 995.386 315.42C995.386 315.06 995.506 314.4 995.746 313.44C996.226 311.88 997.306 310.8 998.986 310.2C1000.67 309.48 1003.13 309.12 1006.37 309.12H1086.29ZM1227.03 345.66C1225.11 352.62 1221.51 358.08 1216.23 362.04C1210.95 365.88 1204.29 368.28 1196.25 369.24C1202.01 369.72 1206.33 371.4 1209.21 374.28C1212.09 377.16 1213.53 380.94 1213.53 385.62C1213.53 387.42 1213.23 389.64 1212.63 392.28L1210.65 401.1C1210.41 402.3 1210.29 403.14 1210.29 403.62C1210.29 405.18 1210.65 406.38 1211.37 407.22C1212.09 407.94 1213.11 408.3 1214.43 408.3C1216.95 408.3 1218.75 408.66 1219.83 409.38C1221.03 410.1 1221.45 411.42 1221.09 413.34C1220.61 416.1 1219.17 418.8 1216.77 421.44C1214.37 424.08 1210.95 426.3 1206.51 428.1C1202.19 429.78 1196.91 430.62 1190.67 430.62C1182.75 430.62 1176.45 428.88 1171.77 425.4C1167.09 421.8 1164.75 416.7 1164.75 410.1C1164.75 407.58 1165.11 404.88 1165.83 402L1168.71 390.48C1169.19 388.92 1169.43 387.3 1169.43 385.62C1169.43 382.86 1168.47 380.88 1166.55 379.68C1164.75 378.48 1161.81 377.88 1157.73 377.88H1150.89L1142.61 407.76C1142.37 408.48 1142.25 409.38 1142.25 410.46C1142.25 412.14 1142.67 413.58 1143.51 414.78C1144.35 415.98 1145.49 417.24 1146.93 418.56C1148.01 419.4 1148.85 420.24 1149.45 421.08C1150.05 421.8 1150.35 422.58 1150.35 423.42C1150.35 425.46 1149.39 426.9 1147.47 427.74C1145.55 428.58 1142.73 429 1139.01 429H1093.83C1090.71 429 1088.37 428.46 1086.81 427.38C1085.25 426.18 1084.71 424.56 1085.19 422.52C1085.43 421.44 1085.91 420.6 1086.63 420C1087.23 419.28 1088.19 418.5 1089.51 417.66C1091.55 416.46 1093.17 415.2 1094.37 413.88C1095.57 412.56 1096.53 410.52 1097.25 407.76L1119.21 330.18C1119.69 328.62 1119.93 327.12 1119.93 325.68C1119.93 324.36 1119.69 323.28 1119.21 322.44C1118.85 321.48 1118.31 320.4 1117.59 319.2C1116.51 317.64 1115.97 316.38 1115.97 315.42C1115.97 315.06 1116.09 314.4 1116.33 313.44C1116.81 311.88 1117.83 310.8 1119.39 310.2C1121.07 309.48 1123.59 309.12 1126.95 309.12H1187.25C1195.53 309.12 1202.73 310.38 1208.85 312.9C1215.09 315.42 1219.83 318.9 1223.07 323.34C1226.43 327.66 1228.11 332.58 1228.11 338.1C1228.11 340.62 1227.75 343.14 1227.03 345.66ZM1180.95 343.86C1181.55 341.1 1181.85 339 1181.85 337.56C1181.85 331.2 1178.37 328.02 1171.41 328.02H1163.85L1155.93 359.88H1163.49C1168.17 359.88 1171.83 358.74 1174.47 356.46C1177.23 354.18 1179.39 349.98 1180.95 343.86Z" fill="#F6FCFF"/>
<line x1="512" y1="546.5" x2="912" y2="546.5" stroke="#F6FCFF" stroke-width="3"/>
</svg>
